<!DOCTYPE svg PUBLIC "-//W3C//DTD SVG 1.1//EN" "http://www.w3.org/Graphics/SVG/1.1/DTD/svg11.dtd">
<!-- Uploaded to: SVG Repo, www.svgrepo.com, Transformed by: SVG Repo Mixer Tools -->
<svg fill="#ffffff" width="800px" height="800px" viewBox="0 0 512 512" version="1.1" xml:space="preserve" xmlns="http://www.w3.org/2000/svg" xmlns:xlink="http://www.w3.org/1999/xlink">
<g id="SVGRepo_bgCarrier" stroke-width="0"/>
<g id="SVGRepo_tracerCarrier" stroke-linecap="round" stroke-linejoin="round"/>
<g id="SVGRepo_iconCarrier"> <g id="Hammer"> <g id="XMLID_1229_"> <polygon id="XMLID_1230_" points="104.175,346.679 153.639,396.144 203.997,341.071 160.03,297.104 "/> <path d="M228.319,68.566l27.369,27.37l31.625-31.625l-14.14-14.14C240.64,17.638,193.314,8.255,151.907,24.295 l10.374,3.458C187.033,36.004,209.868,50.117,228.319,68.566z" id="XMLID_1231_"/> <path d="M17.336,423.753C8.898,431.326,4.058,441.79,3.75,453.178c-0.307,11.39,3.96,22.1,12.017,30.156 c8.056,8.057,18.767,12.336,30.156,12.016c11.39-0.307,21.853-5.148,29.463-13.627l64.793-70.861l-50.934-50.935L17.336,423.753z" id="XMLID_1232_"/> <polygon id="XMLID_1233_" points="324.259,55.543 308.451,71.351 308.448,71.355 308.444,71.359 246.921,132.882 285.589,171.55 285.59,171.552 331.304,217.266 331.307,217.27 369.974,255.936 447.312,178.597 "/> <polygon id="XMLID_1234_" points="491.879,223.162 483.69,231.351 483.686,231.356 422.733,292.309 422.723,292.317 414.539,300.501 430.926,316.888 508.265,239.549 "/> <polygon id="XMLID_1235_" points="460.573,226.289 440.09,213.999 405.376,248.712 417.666,269.196 "/> <polygon id="XMLID_1237_" points="174.96,283.854 217.456,326.351 310.478,224.619 278.138,192.279 "/> </g> </g> <g id="Layer_1"/> </g>
</svg>